<?xml version="1.0" standalone="no"?>
<!DOCTYPE svg PUBLIC "-//W3C//DTD SVG 20010904//EN"
 "http://www.w3.org/TR/2001/REC-SVG-20010904/DTD/svg10.dtd">
<svg version="1.0" xmlns="http://www.w3.org/2000/svg"
 width="2994.000000pt" height="2358.000000pt" viewBox="0 0 2994.000000 2358.000000"
 preserveAspectRatio="xMidYMid meet">

<g transform="translate(0.000000,2358.000000) scale(0.100000,-0.100000)"
fill="#000000" stroke="none">
<path d="M11855 23563 c-614 -26 -1261 -120 -2360 -343 -955 -194 -1720 -423
-2455 -735 -2440 -1038 -4442 -2873 -5702 -5230 -420 -785 -761 -1643 -977
-2460 -34 -126 -65 -243 -71 -260 -5 -16 -12 -43 -14 -60 -3 -16 -21 -104 -40
-195 -245 -1165 -281 -2532 -100 -3800 57 -405 194 -1035 315 -1455 22 -77 52
-180 66 -230 135 -471 383 -1136 583 -1560 15 -33 73 -159 128 -280 251 -552
348 -722 499 -873 201 -201 200 -347 -4 -637 -313 -445 -1229 -1955 -1186
-1955 13 0 377 371 959 975 913 949 1934 1966 2516 2508 703 653 1574 1389
2439 2058 145 113 309 236 364 274 107 75 172 127 302 242 85 75 118 88 143
58 20 -25 14 -157 -15 -322 -139 -788 -169 -1006 -169 -1253 -1 -217 11 -277
70 -335 49 -49 89 -47 295 14 509 151 923 248 2038 476 306 62 720 149 921
194 621 137 850 168 1740 235 619 48 675 50 1465 51 817 2 841 4 871 49 13 22
14 28 0 61 -42 100 -302 289 -791 575 -378 221 -849 475 -1980 1070 -368 194
-818 431 -1000 528 -2109 1119 -3295 1838 -4018 2434 -159 131 -437 411 -509
513 -68 97 -123 203 -142 279 -26 97 -39 407 -33 741 10 505 39 755 158 1350
195 976 276 1224 514 1581 186 278 469 555 775 757 289 190 690 335 1840 662
678 193 1982 541 2925 780 1461 372 3111 668 5400 969 1479 195 1945 248 2264
261 85 3 215 14 290 24 296 42 374 46 866 46 489 -1 602 -8 665 -40 63 -32 24
-96 -117 -192 -192 -130 -499 -284 -1167 -584 -564 -253 -672 -309 -594 -309
82 0 688 185 1903 580 1244 404 1382 439 1925 485 194 16 290 31 290 44 0 64
-857 164 -2610 305 -1388 112 -1950 146 -2447 146 -342 0 -628 33 -898 104
-465 123 -828 300 -1328 649 -288 201 -485 315 -727 420 -505 220 -1038 348
-1985 476 -660 89 -873 112 -1215 131 -166 9 -694 11 -875 3z"/>
<path d="M24155 20663 c-332 -17 -937 -73 -1338 -123 -748 -94 -1219 -187
-1241 -246 -15 -39 117 -51 724 -64 1106 -24 1834 -71 2665 -176 1194 -149
2498 -437 2644 -583 27 -27 18 -46 -31 -66 -98 -39 -332 -56 -1183 -85 -1233
-43 -1959 -90 -2605 -171 -347 -43 -602 -88 -983 -173 -368 -83 -620 -134
-957 -195 -297 -54 -318 -59 -365 -86 -57 -33 -138 -122 -173 -191 -66 -132
-86 -238 -128 -684 -31 -336 -53 -504 -105 -810 -101 -594 -158 -805 -265
-977 -59 -95 -172 -199 -271 -251 -166 -86 -263 -100 -758 -112 -741 -18 -927
-37 -1375 -140 -465 -108 -742 -156 -1500 -264 -1128 -161 -2350 -293 -3255
-351 -431 -27 -539 -36 -609 -46 -139 -22 -196 -56 -196 -118 0 -30 9 -44 58
-92 107 -103 308 -210 1037 -549 1346 -626 2137 -1075 2965 -1684 232 -171
693 -479 1046 -700 466 -291 594 -400 760 -648 178 -265 269 -545 344 -1064
44 -306 53 -467 47 -809 -9 -473 -60 -847 -177 -1300 -92 -358 -146 -484 -660
-1555 -339 -706 -466 -926 -641 -1113 -198 -212 -471 -357 -793 -422 -206 -41
-1241 -177 -1636 -214 -355 -33 -520 -41 -1075 -51 -291 -6 -557 -12 -590 -15
-33 -3 -202 -14 -375 -25 -359 -23 -659 -46 -1745 -131 -935 -73 -1227 -98
-1720 -149 -1328 -139 -3140 -272 -4690 -345 -1027 -48 -1469 -86 -2330 -201
-716 -94 -1002 -148 -981 -182 18 -29 246 -49 726 -63 413 -13 1995 -7 2780
11 2033 44 3825 110 5080 185 377 23 814 43 1270 60 892 33 1231 46 1650 65
754 34 1079 42 1287 30 104 -5 203 -12 219 -15 544 -94 837 -93 1469 3 217 33
258 36 425 35 104 -1 216 -7 255 -15 l70 -13 -1 -135 c-1 -145 -19 -267 -64
-446 -48 -190 -130 -334 -246 -428 l-53 -44 -463 -6 c-526 -7 -4558 -23 -7893
-32 -2199 -6 -3097 1 -3400 26 -66 5 -184 19 -262 31 -107 15 -147 18 -162 9
-26 -13 -26 -17 -2 -55 106 -172 640 -575 1226 -927 1232 -738 2667 -1296
4005 -1557 1972 -384 3984 -241 5938 424 1422 483 2833 1315 4022 2371 175
155 686 661 825 817 1164 1300 2121 2937 2629 4496 423 1297 586 2517 515
3851 -58 1107 -171 1873 -384 2627 -66 233 -269 867 -372 1162 -160 462 -317
812 -463 1035 -100 153 -155 267 -250 521 -45 121 -108 274 -138 340 -87 186
-83 257 15 284 21 6 67 11 103 11 108 0 186 18 400 90 309 104 893 246 1520
369 624 123 1114 192 1875 266 976 94 1067 98 1995 101 443 1 929 7 1080 13
151 6 385 11 520 11 554 1 611 42 307 219 -254 148 -1349 644 -2000 907 -669
270 -1671 470 -2631 524 -159 9 -807 11 -961 3z"/>
</g>
</svg>
